%TF.GenerationSoftware,KiCad,Pcbnew,7.0.8*%
%TF.CreationDate,2023-12-15T10:12:50-05:00*%
%TF.ProjectId,g1 crymax lite,67312063-7279-46d6-9178-206c6974652e,rev?*%
%TF.SameCoordinates,Original*%
%TF.FileFunction,Copper,L1,Top*%
%TF.FilePolarity,Positive*%
%FSLAX46Y46*%
G04 Gerber Fmt 4.6, Leading zero omitted, Abs format (unit mm)*
G04 Created by KiCad (PCBNEW 7.0.8) date 2023-12-15 10:12:50*
%MOMM*%
%LPD*%
G01*
G04 APERTURE LIST*
G04 Aperture macros list*
%AMRoundRect*
0 Rectangle with rounded corners*
0 $1 Rounding radius*
0 $2 $3 $4 $5 $6 $7 $8 $9 X,Y pos of 4 corners*
0 Add a 4 corners polygon primitive as box body*
4,1,4,$2,$3,$4,$5,$6,$7,$8,$9,$2,$3,0*
0 Add four circle primitives for the rounded corners*
1,1,$1+$1,$2,$3*
1,1,$1+$1,$4,$5*
1,1,$1+$1,$6,$7*
1,1,$1+$1,$8,$9*
0 Add four rect primitives between the rounded corners*
20,1,$1+$1,$2,$3,$4,$5,0*
20,1,$1+$1,$4,$5,$6,$7,0*
20,1,$1+$1,$6,$7,$8,$9,0*
20,1,$1+$1,$8,$9,$2,$3,0*%
G04 Aperture macros list end*
%TA.AperFunction,SMDPad,CuDef*%
%ADD10RoundRect,0.250000X-0.362500X-1.425000X0.362500X-1.425000X0.362500X1.425000X-0.362500X1.425000X0*%
%TD*%
%TA.AperFunction,SMDPad,CuDef*%
%ADD11RoundRect,0.249999X0.450001X1.450001X-0.450001X1.450001X-0.450001X-1.450001X0.450001X-1.450001X0*%
%TD*%
%TA.AperFunction,SMDPad,CuDef*%
%ADD12RoundRect,0.250000X-1.400000X-1.000000X1.400000X-1.000000X1.400000X1.000000X-1.400000X1.000000X0*%
%TD*%
%TA.AperFunction,SMDPad,CuDef*%
%ADD13R,2.500000X2.500000*%
%TD*%
%TA.AperFunction,Conductor*%
%ADD14C,0.500000*%
%TD*%
G04 APERTURE END LIST*
D10*
%TO.P,R3,2*%
%TO.N,GND*%
X37236500Y-19468800D03*
%TO.P,R3,1*%
%TO.N,Net-(C1-Pad2)*%
X31311500Y-19468800D03*
%TD*%
D11*
%TO.P,C1,1*%
%TO.N,GND*%
X36306000Y-24498000D03*
%TO.P,C1,2*%
%TO.N,Net-(C1-Pad2)*%
X32206000Y-24498000D03*
%TD*%
D10*
%TO.P,R4,2*%
%TO.N,Net-(C1-Pad2)*%
X28922000Y-27800000D03*
%TO.P,R4,1*%
%TO.N,Net-(D1-A)*%
X22997000Y-27800000D03*
%TD*%
D12*
%TO.P,D1,1,K*%
%TO.N,Net-(D1-K)*%
X24350000Y-17440400D03*
%TO.P,D1,2,A*%
%TO.N,Net-(D1-A)*%
X24350000Y-24240400D03*
%TD*%
D13*
%TO.P,VNEG,1,1*%
%TO.N,Net-(D1-K)*%
X24604000Y-14134800D03*
%TD*%
%TO.P,GND,1,1*%
%TO.N,GND*%
X36661600Y-28206400D03*
%TD*%
%TO.P,G1,1,1*%
%TO.N,Net-(C1-Pad2)*%
X36661600Y-13931600D03*
%TD*%
D14*
%TO.N,Net-(C1-Pad2)*%
X31311500Y-19468800D02*
X31311500Y-14488500D01*
X31311500Y-14488500D02*
X31868400Y-13931600D01*
X31868400Y-13931600D02*
X36661600Y-13931600D01*
%TO.N,Net-(D1-A)*%
X23029200Y-27767800D02*
X22997000Y-27800000D01*
X24350000Y-24240400D02*
X23029200Y-25561200D01*
X23029200Y-25561200D02*
X23029200Y-27767800D01*
%TO.N,Net-(C1-Pad2)*%
X31309600Y-19470700D02*
X31311500Y-19468800D01*
X31309600Y-23601600D02*
X31309600Y-19470700D01*
X28922000Y-27782000D02*
X32206000Y-24498000D01*
X32206000Y-24498000D02*
X31309600Y-23601600D01*
X28922000Y-27800000D02*
X28922000Y-27782000D01*
%TO.N,Net-(D1-K)*%
X24604000Y-14134800D02*
X24604000Y-17440400D01*
%TD*%
%TA.AperFunction,Conductor*%
%TO.N,GND*%
G36*
X38414939Y-16948485D02*
G01*
X38460694Y-17001289D01*
X38471900Y-17052800D01*
X38471900Y-17061300D01*
X38469903Y-17590347D01*
X38449966Y-17657312D01*
X38396989Y-17702867D01*
X38327794Y-17712549D01*
X38264348Y-17683285D01*
X38240365Y-17654976D01*
X38191315Y-17575454D01*
X38067345Y-17451484D01*
X37918124Y-17359443D01*
X37918119Y-17359441D01*
X37751697Y-17304294D01*
X37751690Y-17304293D01*
X37648986Y-17293800D01*
X37486500Y-17293800D01*
X37486500Y-21643799D01*
X37648972Y-21643799D01*
X37648986Y-21643798D01*
X37751697Y-21633305D01*
X37918119Y-21578158D01*
X37918124Y-21578156D01*
X38067345Y-21486115D01*
X38191316Y-21362144D01*
X38226096Y-21305756D01*
X38278044Y-21259030D01*
X38347006Y-21247807D01*
X38411089Y-21275650D01*
X38449946Y-21333718D01*
X38455635Y-21371319D01*
X38436367Y-26477406D01*
X38416430Y-26544371D01*
X38363453Y-26589926D01*
X38294258Y-26599608D01*
X38238057Y-26576205D01*
X38153688Y-26513046D01*
X38153686Y-26513045D01*
X38018979Y-26462803D01*
X38018972Y-26462801D01*
X37959444Y-26456400D01*
X37545786Y-26456400D01*
X37478747Y-26436715D01*
X37432992Y-26383911D01*
X37423048Y-26314753D01*
X37437847Y-26273922D01*
X37437305Y-26273670D01*
X37440152Y-26267563D01*
X37440246Y-26267305D01*
X37440355Y-26267126D01*
X37440359Y-26267119D01*
X37495505Y-26100697D01*
X37505999Y-25997986D01*
X37506000Y-25997973D01*
X37506000Y-24748000D01*
X35106001Y-24748000D01*
X35106001Y-25997986D01*
X35116494Y-26100696D01*
X35116494Y-26100698D01*
X35171640Y-26267119D01*
X35171642Y-26267124D01*
X35215941Y-26338943D01*
X35234381Y-26406336D01*
X35213458Y-26472999D01*
X35176142Y-26507105D01*
X35176611Y-26507731D01*
X35170240Y-26512499D01*
X35169839Y-26512867D01*
X35169510Y-26513046D01*
X35054412Y-26599209D01*
X35054409Y-26599212D01*
X34968249Y-26714306D01*
X34968245Y-26714313D01*
X34918003Y-26849020D01*
X34918001Y-26849027D01*
X34911600Y-26908555D01*
X34911600Y-27956400D01*
X36787600Y-27956400D01*
X36854639Y-27976085D01*
X36900394Y-28028889D01*
X36911600Y-28080400D01*
X36911600Y-29956400D01*
X37959428Y-29956400D01*
X37959444Y-29956399D01*
X38018972Y-29949998D01*
X38018979Y-29949996D01*
X38153686Y-29899754D01*
X38153693Y-29899750D01*
X38224968Y-29846394D01*
X38290432Y-29821976D01*
X38358705Y-29836827D01*
X38408111Y-29886232D01*
X38423278Y-29946128D01*
X38422051Y-30271213D01*
X38402114Y-30338178D01*
X38349137Y-30383733D01*
X38302076Y-30394680D01*
X34638024Y-30513643D01*
X34570381Y-30496144D01*
X34522937Y-30444853D01*
X34510000Y-30389708D01*
X34510000Y-28456400D01*
X34911600Y-28456400D01*
X34911600Y-29504244D01*
X34918001Y-29563772D01*
X34918003Y-29563779D01*
X34968245Y-29698486D01*
X34968249Y-29698493D01*
X35054409Y-29813587D01*
X35054412Y-29813590D01*
X35169506Y-29899750D01*
X35169513Y-29899754D01*
X35304220Y-29949996D01*
X35304227Y-29949998D01*
X35363755Y-29956399D01*
X35363772Y-29956400D01*
X36411600Y-29956400D01*
X36411600Y-28456400D01*
X34911600Y-28456400D01*
X34510000Y-28456400D01*
X34510000Y-24248000D01*
X35106000Y-24248000D01*
X36056000Y-24248000D01*
X36056000Y-22298000D01*
X36556000Y-22298000D01*
X36556000Y-24248000D01*
X37505999Y-24248000D01*
X37505999Y-22998028D01*
X37505998Y-22998013D01*
X37495505Y-22895303D01*
X37495505Y-22895301D01*
X37440359Y-22728880D01*
X37440354Y-22728869D01*
X37348319Y-22579659D01*
X37348316Y-22579655D01*
X37224344Y-22455683D01*
X37224340Y-22455680D01*
X37075130Y-22363645D01*
X37075119Y-22363640D01*
X36908697Y-22308494D01*
X36805986Y-22298000D01*
X36556000Y-22298000D01*
X36056000Y-22298000D01*
X35806029Y-22298000D01*
X35806012Y-22298001D01*
X35703303Y-22308494D01*
X35703301Y-22308494D01*
X35536880Y-22363640D01*
X35536869Y-22363645D01*
X35387659Y-22455680D01*
X35387655Y-22455683D01*
X35263683Y-22579655D01*
X35263680Y-22579659D01*
X35171645Y-22728869D01*
X35171640Y-22728880D01*
X35116494Y-22895302D01*
X35106000Y-22998013D01*
X35106000Y-24248000D01*
X34510000Y-24248000D01*
X34510000Y-19718800D01*
X36124001Y-19718800D01*
X36124001Y-20943786D01*
X36134494Y-21046497D01*
X36189641Y-21212919D01*
X36189643Y-21212924D01*
X36281684Y-21362145D01*
X36405654Y-21486115D01*
X36554875Y-21578156D01*
X36554880Y-21578158D01*
X36721302Y-21633305D01*
X36721309Y-21633306D01*
X36824019Y-21643799D01*
X36986499Y-21643799D01*
X36986500Y-21643798D01*
X36986500Y-19718800D01*
X36124001Y-19718800D01*
X34510000Y-19718800D01*
X34510000Y-19218800D01*
X36124000Y-19218800D01*
X36986500Y-19218800D01*
X36986500Y-17293800D01*
X36824029Y-17293800D01*
X36824012Y-17293801D01*
X36721302Y-17304294D01*
X36554880Y-17359441D01*
X36554875Y-17359443D01*
X36405654Y-17451484D01*
X36281684Y-17575454D01*
X36189643Y-17724675D01*
X36189641Y-17724680D01*
X36134494Y-17891102D01*
X36134493Y-17891109D01*
X36124000Y-17993813D01*
X36124000Y-19218800D01*
X34510000Y-19218800D01*
X34510000Y-17129500D01*
X34529685Y-17062461D01*
X34582489Y-17016706D01*
X34634000Y-17005500D01*
X38041240Y-17005500D01*
X38041383Y-17005528D01*
X38041384Y-17005524D01*
X38065997Y-17005539D01*
X38066000Y-17005541D01*
X38066383Y-17005383D01*
X38066383Y-17005381D01*
X38066750Y-17005015D01*
X38110045Y-16951079D01*
X38176297Y-16928888D01*
X38180959Y-16928800D01*
X38347900Y-16928800D01*
X38414939Y-16948485D01*
G37*
%TD.AperFunction*%
%TD*%
M02*
